<?xml version="1.0" encoding="utf-8"?>
<!-- Generator: Adobe Illustrator 19.2.1, SVG Export Plug-In . SVG Version: 6.00 Build 0)  -->
<svg version="1.1" id="Layer_1" xmlns="http://www.w3.org/2000/svg" xmlns:xlink="http://www.w3.org/1999/xlink" x="0px" y="0px"
	 viewBox="0 0 18 18" style="enable-background:new 0 0 18 18;" xml:space="preserve">
<style type="text/css">
	.st0{fill:#079FFF;}
</style>
<path class="st0" d="M13.3,4c-0.3,0-0.5,0-0.8,0.1V1.9c0-0.7-0.5-1.4-1.3-1.4H3.8C3,0.5,2.5,1.2,2.5,1.9v14.2c0,0.7,0.5,1.4,1.3,1.4
	h7.5c0.7,0,1.3-0.7,1.3-1.4v-3.7c0.2,0,0.5,0.1,0.8,0.1c2.3,0,4.2-1.9,4.2-4.2c0,0,0,0,0,0C17.5,5.9,15.6,4,13.3,4z M5.7,1.4
	L5.7,1.4l3.7,0c0.1,0.1,0.2,0.2,0.2,0.3c0,0.1,0,0.3-0.2,0.3H5.7C5.5,2,5.5,1.8,5.5,1.7C5.5,1.6,5.5,1.4,5.7,1.4z M7.5,16.1
	c-0.5,0-0.9-0.4-0.9-0.9c0-0.5,0.4-0.9,0.9-0.9s0.9,0.4,0.9,0.9C8.4,15.7,8,16.1,7.5,16.1z M11.5,13H3.4V2.9h8.1v1.5
	C10.1,5.1,9,6.5,9,8.3c0,1.7,1,3.2,2.5,3.9V13z M15.1,9L15.1,9L14,9v1.1c0,0.4-0.3,0.7-0.7,0.7s-0.7-0.3-0.7-0.7V9h-1.1
	c-0.4,0-0.7-0.3-0.7-0.7c0-0.4,0.3-0.7,0.7-0.7h1.1V6.4c0-0.4,0.3-0.7,0.7-0.7C13.7,5.7,14,6,14,6.4v1.1h1.1c0.4,0,0.7,0.3,0.7,0.7
	C15.9,8.7,15.5,9,15.1,9z"/>
</svg>
