<svg xmlns="http://www.w3.org/2000/svg" width="18" height="18" viewBox="0 0 18 18">
  <metadata><?xpacket begin="﻿" id="W5M0MpCehiHzreSzNTczkc9d"?>
<x:xmpmeta xmlns:x="adobe:ns:meta/" x:xmptk="Adobe XMP Core 5.6-c138 79.159824, 2016/09/14-01:09:01        ">
   <rdf:RDF xmlns:rdf="http://www.w3.org/1999/02/22-rdf-syntax-ns#">
      <rdf:Description rdf:about=""/>
   </rdf:RDF>
</x:xmpmeta>
                                                                                                    
                                                                                                    
                                                                                                    
                                                                                                    
                                                                                                    
                                                                                                    
                                                                                                    
                                                                                                    
                                                                                                    
                                                                                                    
                                                                                                    
                                                                                                    
                                                                                                    
                                                                                                    
                                                                                                    
                                                                                                    
                                                                                                    
                                                                                                    
                                                                                                    
                                                                                                    
                           
<?xpacket end="w"?></metadata>
<defs>
    <style>
      .cls-1 {
        fill: #079fff;
        fill-rule: evenodd;
      }
    </style>
  </defs>
  <path class="cls-1" d="M14.789,6.356a3.617,3.617,0,1,0,3.57,3.617A3.594,3.594,0,0,0,14.789,6.356Zm1.676,4.052H15.191v1.261a0.415,0.415,0,1,1-.83,0V10.378H13.116a0.427,0.427,0,0,1-.415-0.42,0.383,0.383,0,0,1,.385-0.42h1.274V8.277a0.415,0.415,0,1,1,.83,0V9.538h1.244a0.458,0.458,0,0,1,.445.45A0.427,0.427,0,0,1,16.465,10.408Zm-6.183-.435A4.115,4.115,0,0,1,14.37,5.832V5.4L8.068,7.91v8.683l6.241-2.486A4.112,4.112,0,0,1,10.282,9.973Zm-9.917,4.11,6.3,2.51V7.91L0.365,5.4v8.686Zm7-11.677L1.731,4.384,7.367,6.63,13,4.383Z"/>
</svg>
