<svg xmlns="http://www.w3.org/2000/svg" width="18" height="18" viewBox="0 0 18 18">
  <metadata><?xpacket begin="﻿" id="W5M0MpCehiHzreSzNTczkc9d"?>
<x:xmpmeta xmlns:x="adobe:ns:meta/" x:xmptk="Adobe XMP Core 5.6-c138 79.159824, 2016/09/14-01:09:01        ">
   <rdf:RDF xmlns:rdf="http://www.w3.org/1999/02/22-rdf-syntax-ns#">
      <rdf:Description rdf:about=""/>
   </rdf:RDF>
</x:xmpmeta>
                                                                                                    
                                                                                                    
                                                                                                    
                                                                                                    
                                                                                                    
                                                                                                    
                                                                                                    
                                                                                                    
                                                                                                    
                                                                                                    
                                                                                                    
                                                                                                    
                                                                                                    
                                                                                                    
                                                                                                    
                                                                                                    
                                                                                                    
                                                                                                    
                                                                                                    
                                                                                                    
                           
<?xpacket end="w"?></metadata>
<defs>
    <style>
      .cls-1 {
        fill: #079fff;
        fill-rule: evenodd;
      }
    </style>
  </defs>
  <path class="cls-1" d="M10.922,10.294a3.759,3.759,0,0,1,3.72-3.8c0.038,0,.073.01,0.111,0.011l-1.99-1.925H10.426V4.435H8.553V4.582H1.29A1.311,1.311,0,0,0,.192,5.9H0V7.419H0.192v3.487H0v1.516H0.192v0.672A1.107,1.107,0,0,0,1.29,14.2H8.553v0.1h1.873V14.2h3.937a1.052,1.052,0,0,0,.494-0.134c-0.072,0-.141.022-0.215,0.022A3.759,3.759,0,0,1,10.922,10.294ZM6.6,9.351V8.487H9.115V9.351H6.6ZM9.115,9.5h0v0.786H6.6V9.5H9.115ZM5.392,8.341L6.6,6.938H9.115v1.4H5.392ZM6.6,5.912h1.42A1.063,1.063,0,0,1,9.1,6.793H6.6V5.912Zm-2.694,0h2.55V6.841L5.2,8.309,3.9,6.841V5.912Zm-1.468,0H3.759V6.841H1.352A1.106,1.106,0,0,1,2.436,5.912ZM1.338,7.07V6.988H3.807L5.018,8.341H1.338V7.07Zm0,1.467H3.808V9.206H1.337V8.537Zm0,0.815H3.806v1.076H1.338V9.351Zm2.418,2.48v0.995H2.436a1.106,1.106,0,0,1-1.09-1H3.759Zm-2.417-.149V10.575H5.113L3.808,11.683H1.339Zm5.112,1.143H3.9v-1h0l1.339-1.125,1.21,1.125v0.995Zm1.569,0H6.6V11.831H9.111A1.106,1.106,0,0,1,8.019,12.826Zm1.1-1.16v0.017H6.552L5.146,10.429H4V8.52H6.454L6.438,10.428h2.68v1.239Zm5.739-4.589A3.209,3.209,0,1,0,18,10.285,3.176,3.176,0,0,0,14.857,7.077Zm1.475,3.594H15.211V11.79a0.365,0.365,0,1,1-.731,0V10.645h-1.1a0.377,0.377,0,0,1-.365-0.373A0.339,0.339,0,0,1,13.358,9.9H14.48V8.781a0.365,0.365,0,1,1,.731,0V9.9h1.1a0.4,0.4,0,0,1,.392.4A0.377,0.377,0,0,1,16.333,10.672Z"/>
</svg>
