<svg xmlns="http://www.w3.org/2000/svg" width="18" height="18" viewBox="0 0 18 18">
  <defs>
    <style>
      .cls-1 {
        fill: #079fff;
        fill-rule: evenodd;
      }
    </style>
  </defs>
  <path id="Forma_1" data-name="Forma 1" class="cls-1" d="M6.588,7.541c1.891,0,2.571-1.959,2.749-3.567C9.557,1.992,8.651.5,6.588,0.5S3.619,1.992,3.838,3.974C4.017,5.583,4.7,7.542,6.588,7.541Zm4.135,0.815q0.091,0,.181.005a1.473,1.473,0,0,0-.316-0.344,5.047,5.047,0,0,0-1.25-.542,5.326,5.326,0,0,1-.554-0.257,2.837,2.837,0,0,1-2.2.993,2.836,2.836,0,0,1-2.2-.993,5.335,5.335,0,0,1-.554.257,5.046,5.046,0,0,0-1.25.542,3.805,3.805,0,0,0-.918,2.321,13.782,13.782,0,0,0-.2,1.866,0.637,0.637,0,0,0,.606.7,11.027,11.027,0,0,0,1.5.429,14.687,14.687,0,0,0,3.005.387,11.687,11.687,0,0,0,1.466-.11,3.414,3.414,0,0,1-.572-1.9A3.3,3.3,0,0,1,10.723,8.357Zm2.561,0.658a4.242,4.242,0,1,0,4.239,4.242A4.241,4.241,0,0,0,13.284,9.014Zm1.855,4.97H14.011v1.128a0.727,0.727,0,1,1-1.454,0V13.985H11.429a0.728,0.728,0,0,1,0-1.456h1.127V11.4a0.727,0.727,0,1,1,1.454,0v1.128h1.127A0.728,0.728,0,0,1,15.138,13.985Z"/>
</svg>
