<svg xmlns="http://www.w3.org/2000/svg" width="20" height="20" viewBox="0 0 20 20">
  <defs>
    <style>
      .cls-1 {
        fill: #1b6db2;
        fill-rule: evenodd;
      }
    </style>
  </defs>
  <path class="cls-1" d="M5.323,10.19V9.144a0.281,0.281,0,0,1,.282-0.282H6.652a0.281,0.281,0,0,1,.282.282V10.19a0.281,0.281,0,0,1-.282.282H5.605A0.285,0.285,0,0,1,5.323,10.19Zm2.47,0.279H8.839a0.282,0.282,0,0,0,.282-0.282V9.141a0.282,0.282,0,0,0-.282-0.282H7.793a0.282,0.282,0,0,0-.282.282v1.046A0.285,0.285,0,0,0,7.793,10.469Zm2.187,0h1.046a0.282,0.282,0,0,0,.282-0.282V9.141a0.282,0.282,0,0,0-.282-0.282H9.98a0.282,0.282,0,0,0-.282.282v1.046A0.285,0.285,0,0,0,9.98,10.469ZM7.793,12.6H8.839a0.282,0.282,0,0,0,.282-0.282V11.273a0.282,0.282,0,0,0-.282-0.282H7.793a0.282,0.282,0,0,0-.282.282v1.046A0.285,0.285,0,0,0,7.793,12.6Zm2.187,0h1.046a0.282,0.282,0,0,0,.282-0.282V11.273a0.282,0.282,0,0,0-.282-0.282H9.98a0.282,0.282,0,0,0-.282.282v1.046A0.285,0.285,0,0,0,9.98,12.6Zm2.19,0h1.046a0.282,0.282,0,0,0,.282-0.282V11.273a0.282,0.282,0,0,0-.282-0.282H12.17a0.281,0.281,0,0,0-.282.282v1.046A0.281,0.281,0,0,0,12.17,12.6Zm-6.565,0H6.652a0.281,0.281,0,0,0,.282-0.282V11.273a0.281,0.281,0,0,0-.282-0.282H5.605a0.282,0.282,0,0,0-.282.282v1.046A0.282,0.282,0,0,0,5.605,12.6ZM9.98,14.73h1.046a0.281,0.281,0,0,0,.282-0.282V13.4a0.281,0.281,0,0,0-.282-0.282H9.98A0.281,0.281,0,0,0,9.7,13.4v1.046A0.285,0.285,0,0,0,9.98,14.73Zm-2.187,0H8.839a0.281,0.281,0,0,0,.282-0.282V13.4a0.281,0.281,0,0,0-.282-0.282H7.793a0.281,0.281,0,0,0-.282.282v1.046A0.285,0.285,0,0,0,7.793,14.73Zm4.378-4.261h1.046a0.282,0.282,0,0,0,.282-0.282V9.141a0.282,0.282,0,0,0-.282-0.282H12.17a0.281,0.281,0,0,0-.282.282v1.046A0.281,0.281,0,0,0,12.17,10.469ZM14.357,12.6H15.4a0.282,0.282,0,0,0,.282-0.282V11.273a0.282,0.282,0,0,0-.282-0.282H14.357a0.282,0.282,0,0,0-.282.282v1.046A0.286,0.286,0,0,0,14.357,12.6ZM12.17,14.73h1.046a0.281,0.281,0,0,0,.282-0.282V13.4a0.281,0.281,0,0,0-.282-0.282H12.17a0.281,0.281,0,0,0-.282.282v1.046A0.281,0.281,0,0,0,12.17,14.73Zm-9.175.629V5.257A1.643,1.643,0,0,1,4.636,3.616H6.477V2.6a0.6,0.6,0,0,1,.6-0.6H8.01a0.6,0.6,0,0,1,.6.6V3.613h3.773V2.6a0.6,0.6,0,0,1,.6-0.6h0.936a0.6,0.6,0,0,1,.6.6V3.613h1.841A1.643,1.643,0,0,1,18,5.254v10.1A1.643,1.643,0,0,1,16.355,17H4.636A1.643,1.643,0,0,1,2.995,15.359Zm1.27,0a0.376,0.376,0,0,0,.374.374H16.355a0.376,0.376,0,0,0,.374-0.374V7.877H4.265v7.482Z"/>
</svg>
