<svg xmlns="http://www.w3.org/2000/svg" width="20" height="20" viewBox="0 0 20 20">
  <defs>
    <style>
      .cls-1 {
        fill: #fff;
        fill-rule: evenodd;
      }
    </style>
  </defs>
  <path id="Forma_1" data-name="Forma 1" class="cls-1" d="M5.419,16.915a0.812,0.812,0,0,0,.8.792h7.46a0.812,0.812,0,0,0,.8-0.792L15.009,5.286H4.886Zm6.216-8.74a0.33,0.33,0,0,1,.325-0.336h0.519a0.33,0.33,0,0,1,.324.336v6.644a0.33,0.33,0,0,1-.324.336H11.96a0.33,0.33,0,0,1-.325-0.336V8.175Zm-2.272,0a0.33,0.33,0,0,1,.325-0.336h0.519a0.33,0.33,0,0,1,.325.336v6.644a0.33,0.33,0,0,1-.325.336H9.688a0.33,0.33,0,0,1-.325-0.336V8.175h0Zm-2.272,0a0.33,0.33,0,0,1,.324-0.336H7.936a0.33,0.33,0,0,1,.325.336v6.644a0.33,0.33,0,0,1-.325.336H7.416a0.33,0.33,0,0,1-.324-0.336V8.175Zm8.272-6.041H11.922V1.461a0.17,0.17,0,0,0-.167-0.173H8.141a0.17,0.17,0,0,0-.167.173V2.134H4.532a0.51,0.51,0,0,0-.5.519V4.281H15.865V2.652A0.51,0.51,0,0,0,15.364,2.134Z"/>
</svg>
