<svg xmlns="http://www.w3.org/2000/svg" width="20" height="20" viewBox="0 0 20 20">
  <defs>
    <style>
      .cls-1 {
        fill: #fff;
        fill-rule: evenodd;
      }
    </style>
  </defs>
  <path class="cls-1" d="M1.245,11.608l2,1.618,0.775,1.34L17.845,6.76l0.033-.219a1.989,1.989,0,0,0-.253-1.32,2.127,2.127,0,0,0-1.862-1.028A2.363,2.363,0,0,0,14.6,4.5l-2.783,1.7L5.015,3.985l-1.742.984a0.8,0.8,0,0,0-.3,1.1L3.033,6.178,7.62,8.759,5.408,10.129l-2.838-.2-1.1.62a0.714,0.714,0,0,0-.269.985Zm1.544-.743,2.859,0.2L9.43,8.722,3.954,5.641l1.165-.658L11.943,7.2l3.135-1.91a1.409,1.409,0,0,1,.684-0.18,1.2,1.2,0,0,1,1.052.571,1.083,1.083,0,0,1,.15.522L4.372,13.312l-0.4-.684L2.2,11.195ZM1,15.749H18v0.915H1V15.749Z"/>
</svg>
