<svg xmlns="http://www.w3.org/2000/svg" width="45" height="45" viewBox="0 0 45 45">
  <defs>
    <style>
      .cls-1 {
        fill: #079fff;
        fill-rule: evenodd;
      }
    </style>
  </defs>
  <path id="Forma_1" data-name="Forma 1" class="cls-1" d="M12.4,15.244A6.623,6.623,0,1,0,5.881,8.622,6.58,6.58,0,0,0,12.4,15.244ZM12.4,4.2A4.418,4.418,0,1,1,8.058,8.622,4.386,4.386,0,0,1,12.4,4.2ZM32.6,15.244a6.623,6.623,0,1,0-6.521-6.622A6.58,6.58,0,0,0,32.6,15.244ZM32.6,4.2a4.418,4.418,0,1,1-4.344,4.417A4.386,4.386,0,0,1,32.6,4.2Zm10.38,19.569-1.109-5.636A3.968,3.968,0,0,0,38.1,15H35.7a1.081,1.081,0,0,0-.771.324L32.6,17.7l-2.333-2.371A1.081,1.081,0,0,0,29.494,15h-2.4a3.7,3.7,0,0,0-1.865.524,7.93,7.93,0,0,0-5.675-.117A3.653,3.653,0,0,0,17.9,15h-2.4a1.082,1.082,0,0,0-.771.324L12.4,17.7l-2.333-2.371A1.081,1.081,0,0,0,9.3,15H6.9a3.967,3.967,0,0,0-3.768,3.136l-1.11,5.636a1.113,1.113,0,0,0,.226.915,1.083,1.083,0,0,0,.841.4H14.4a8.043,8.043,0,0,0,15.679,0H41.911a1.083,1.083,0,0,0,.841-0.4A1.113,1.113,0,0,0,42.978,23.774Zm-37.712-5.2A1.793,1.793,0,0,1,6.9,17.207H8.846l2.785,2.83a1.079,1.079,0,0,0,1.541,0l2.785-2.83h0.721a8.23,8.23,0,0,0-2.5,5.68H4.416ZM22.242,29.134a5.995,5.995,0,1,1,5.9-5.994A5.953,5.953,0,0,1,22.242,29.134Zm8.066-6.247a8.231,8.231,0,0,0-2.5-5.68h1.237l2.785,2.83a1.079,1.079,0,0,0,1.541,0l2.785-2.83H38.1a1.793,1.793,0,0,1,1.633,1.362l0.85,4.318H30.308Zm3.548,12.548a4.78,4.78,0,0,0-4.539-3.778H26.233a1.081,1.081,0,0,0-.771.324l-3.22,3.272-3.22-3.272a1.08,1.08,0,0,0-.77-0.324H15.167a4.781,4.781,0,0,0-4.539,3.779L9.2,42.682a1.113,1.113,0,0,0,.226.915,1.083,1.083,0,0,0,.841.4H34.216a1.083,1.083,0,0,0,.841-0.4,1.113,1.113,0,0,0,.226-0.915Zm-22.261,6.36,1.167-5.928a2.639,2.639,0,0,1,2.4-2H17.8l3.672,3.731a1.079,1.079,0,0,0,1.541,0l3.672-3.731h2.633a2.639,2.639,0,0,1,2.4,2l1.167,5.928H11.595Z"/>
</svg>
