<svg xmlns="http://www.w3.org/2000/svg" width="11" height="6" viewBox="0 0 11 6">
  <defs>
    <style>
      .cls-1 {
        fill: #5a99dd;
        fill-rule: evenodd;
      }
    </style>
  </defs>
  <path id="Dropdown_copy_5" data-name="Dropdown  copy 5" class="cls-1" d="M0.728,0.448a0.867,0.867,0,0,1,1.183,0l4.41,4.174a0.769,0.769,0,0,1,0,1.125,0.867,0.867,0,0,1-1.183,0L0.728,1.573A0.769,0.769,0,0,1,.728.448Zm4.41,4.174,4.41-4.174a0.867,0.867,0,0,1,1.183,0,0.768,0.768,0,0,1,0,1.125L6.321,5.746a0.867,0.867,0,0,1-1.183,0A0.768,0.768,0,0,1,5.138,4.621Z"/>
</svg>
