<svg xmlns="http://www.w3.org/2000/svg" width="16" height="16" viewBox="0 0 16 16">
  <defs>
    <style>
      .cls-1 {
        fill: #1b6db2;
        fill-rule: evenodd;
      }
    </style>
  </defs>
  <path id="Mail_24x24_" data-name="Mail (24x24)" class="cls-1" d="M7.988,8.626C6.768,8.626.48,3.551,0.48,3.551V2.994A1.251,1.251,0,0,1,1.731,1.743H14.246A1.252,1.252,0,0,1,15.5,2.994l-0.01.626S9.268,8.626,7.988,8.626Zm0,1.721c1.338,0,7.5-4.849,7.5-4.849l0.01,7.509a1.251,1.251,0,0,1-1.252,1.251H1.731A1.251,1.251,0,0,1,.48,13.006L0.489,5.5S6.768,10.347,7.988,10.347Z"/>
</svg>
