<svg xmlns="http://www.w3.org/2000/svg" width="20" height="20" viewBox="0 0 20 20">
  <defs>
    <style>
      .cls-1 {
        fill: #fff;
        fill-rule: evenodd;
      }
    </style>
  </defs>
  <path class="cls-1" d="M18.237,13.862l0.245,0.065,0.2-.151a2.305,2.305,0,0,0,.867-1.259,2.449,2.449,0,0,0-1.8-2.955l-3.57-.825-3.6-7.127L8.41,1.031a0.924,0.924,0,0,0-1.13.649l-0.036.135L8.783,7.5,5.928,6.857,3.844,4.467,2.475,4.1a0.835,0.835,0,0,0-.212-0.027,0.825,0.825,0,0,0-.8.607l-0.025.091L1.718,7.648,1.247,9.335ZM3.263,5.39L5.363,7.8l4.881,1.091L8.405,2.107,9.858,2.494l3.605,7.145,4.022,0.929a1.408,1.408,0,0,1,1.057,1.679,1.251,1.251,0,0,1-.3.537L2.537,8.6l0.24-.861L2.533,5.195ZM1,16.95H20v1.04H1V16.95Z"/>
</svg>
