<svg xmlns="http://www.w3.org/2000/svg" width="18" height="18" viewBox="0 0 18 18">
  <defs>
    <style>
      .cls-1 {
        fill: #1b6db2;
        fill-rule: evenodd;
      }
    </style>
  </defs>
  <path class="cls-1" d="M7.693,5.538h2.761A0.35,0.35,0,0,0,10.8,5.183V3.056a1.726,1.726,0,1,0-3.451,0V5.183A0.35,0.35,0,0,0,7.693,5.538ZM9.073,2.7a0.355,0.355,0,1,1-.345.355A0.35,0.35,0,0,1,9.073,2.7ZM15.285,4.12H11.834a0.35,0.35,0,0,0-.345.355V5.183a1.051,1.051,0,0,1-1.035,1.064H7.693A1.051,1.051,0,0,1,6.657,5.183V4.474A0.35,0.35,0,0,0,6.312,4.12H2.171A1.752,1.752,0,0,0,.446,5.893v7.8a1.752,1.752,0,0,0,1.726,1.773H15.285a1.752,1.752,0,0,0,1.726-1.773v-7.8A1.752,1.752,0,0,0,15.285,4.12ZM9.073,14.049h-6.9a0.35,0.35,0,0,1-.345-0.355,1.856,1.856,0,0,1,1.429-1.8l1.035-.252,0.044-.172a2.256,2.256,0,0,1-.5-1,0.635,0.635,0,0,1-.384-0.5L3.371,9.383a0.649,0.649,0,0,1,.293-0.628C3.645,8.583,3.626,8.385,3.626,8.275c0-.9.507-1.343,1.592-1.378a2.208,2.208,0,0,1,1.193-.3,1.448,1.448,0,0,1,1.3.593,0.878,0.878,0,0,1-.039,1.182l-0.057.056-0.016.33a0.63,0.63,0,0,1,.13.118,0.651,0.651,0,0,1,.148.5L7.8,9.968a0.647,0.647,0,0,1-.348.494A2.24,2.24,0,0,1,6.918,11.5L6.954,11.64,7.99,11.893a1.856,1.856,0,0,1,1.429,1.8A0.352,0.352,0,0,1,9.073,14.049Zm6.212-1.418H10.454a0.355,0.355,0,0,1,0-.709h4.831A0.355,0.355,0,0,1,15.285,12.63Zm0-2.128H10.454a0.355,0.355,0,0,1,0-.709h4.831A0.355,0.355,0,0,1,15.285,10.5Zm0-2.128H10.454a0.355,0.355,0,0,1,0-.709h4.831A0.355,0.355,0,0,1,15.285,8.375Z"/>
</svg>
