<svg xmlns="http://www.w3.org/2000/svg" width="20" height="20" viewBox="0 0 20 20">
  <defs>
    <style>
      .cls-1 {
        fill: #1b6db2;
        fill-rule: evenodd;
      }
    </style>
  </defs>
  <path id="Forma_1" data-name="Forma 1" class="cls-1" d="M14.226,1.5H6.775A1.352,1.352,0,0,0,5.486,2.911V17.09A1.352,1.352,0,0,0,6.775,18.5h7.451a1.352,1.352,0,0,0,1.288-1.408V2.911A1.353,1.353,0,0,0,14.226,1.5Zm-5.564.856H12.34a0.3,0.3,0,0,1,.168.339,0.3,0.3,0,0,1-.168.34H8.661A0.3,0.3,0,0,1,8.494,2.7,0.3,0.3,0,0,1,8.661,2.358ZM10.5,17.107a0.9,0.9,0,1,1,.821-0.9A0.865,0.865,0,0,1,10.5,17.107Zm4.048-3.08h-8.1V3.88h8.1V14.027Z"/>
</svg>
