<svg xmlns="http://www.w3.org/2000/svg" width="18" height="18" viewBox="0 0 18 18">
  <defs>
    <style>
      .cls-1 {
        fill: #8d97a6;
        fill-rule: evenodd;
      }
    </style>
  </defs>
  <path id="Forma_1" data-name="Forma 1" class="cls-1" d="M12.75,10.844H5.25v4.688h7.5V10.844Zm-0.937,3.75H6.187V13.656h5.625v0.937Zm0-1.875H6.187V11.781h5.625v0.938ZM12.75,1.469H5.25V6.156h7.5V1.469Zm1.875,2.812H13.688V7.094H4.312V4.281H3.375A2.016,2.016,0,0,0,1.5,6.156v4.688a2.016,2.016,0,0,0,1.875,1.875H4.312V9.906h9.375v2.813h0.937A2.016,2.016,0,0,0,16.5,10.844V6.156A2.016,2.016,0,0,0,14.625,4.281Z"/>
</svg>
