<svg xmlns="http://www.w3.org/2000/svg" width="18" height="18" viewBox="0 0 18 18">
  <defs>
    <style>
      .cls-1 {
        fill: #1b6db2;
        fill-rule: evenodd;
      }
    </style>
  </defs>
  <path class="cls-1" d="M2.7,13.969A8.822,8.822,0,0,1,2.7,1.5L3.88,2.681a7.166,7.166,0,0,0,0,10.087Zm2.206-2.231,1.178-1.181a3.991,3.991,0,0,1,0-5.625l-1.178-1.2A5.67,5.67,0,0,0,4.908,11.738Zm3.235-1.575V16.5H9.9V10.163A2.58,2.58,0,1,0,8.143,10.163Zm6.02,2.625,1.178,1.181a8.856,8.856,0,0,0,0-12.469L14.163,2.681A7.189,7.189,0,0,1,14.163,12.788Zm-1.028-1.05a5.67,5.67,0,0,0,0-8.006L11.957,4.913a3.992,3.992,0,0,1,0,5.625Z"/>
</svg>
