<svg xmlns="http://www.w3.org/2000/svg" width="18" height="18" viewBox="0 0 18 18">
  <defs>
    <style>
      .cls-1 {
        fill: #b7c2cb;
        fill-rule: evenodd;
      }
    </style>
  </defs>
  <path class="cls-1" d="M8.977,4C5.918,4,3.144,5.754,1.1,8.6a0.69,0.69,0,0,0,0,.793C3.144,12.246,5.918,14,8.977,14s5.832-1.754,7.879-4.6a0.689,0.689,0,0,0,0-.793C14.809,5.754,12.035,4,8.977,4ZM9.2,12.521A3.452,3.452,0,0,1,5.617,8.77a3.459,3.459,0,0,1,3.14-3.291A3.452,3.452,0,0,1,12.337,9.23,3.47,3.47,0,0,1,9.2,12.521Zm-0.1-1.627A1.9,1.9,0,1,1,10.788,9.12,1.866,1.866,0,0,1,9.094,10.894Z"/>
</svg>
