<svg xmlns="http://www.w3.org/2000/svg" width="18" height="18" viewBox="0 0 18 18">
  <metadata><?xpacket begin="﻿" id="W5M0MpCehiHzreSzNTczkc9d"?>
<x:xmpmeta xmlns:x="adobe:ns:meta/" x:xmptk="Adobe XMP Core 5.6-c138 79.159824, 2016/09/14-01:09:01        ">
   <rdf:RDF xmlns:rdf="http://www.w3.org/1999/02/22-rdf-syntax-ns#">
      <rdf:Description rdf:about=""/>
   </rdf:RDF>
</x:xmpmeta>
                                                                                                    
                                                                                                    
                                                                                                    
                                                                                                    
                                                                                                    
                                                                                                    
                                                                                                    
                                                                                                    
                                                                                                    
                                                                                                    
                                                                                                    
                                                                                                    
                                                                                                    
                                                                                                    
                                                                                                    
                                                                                                    
                                                                                                    
                                                                                                    
                                                                                                    
                                                                                                    
                           
<?xpacket end="w"?></metadata>
<defs>
    <style>
      .cls-1 {
        fill: #1b6db2;
        fill-rule: evenodd;
      }
    </style>
  </defs>
  <path class="cls-1" d="M0.616,13.06a1.219,1.219,0,0,0,1.221,1.209H9.916v0.107H12V14.269h4.38A1.219,1.219,0,0,0,17.6,13.06V6.628l-3-2.843H12V3.624H9.916v0.16H1.837A1.437,1.437,0,0,0,.615,5.224H0.4V6.876H0.615v3.8H0.4v1.652H0.615V13.06h0ZM4.745,6.246V5.233H7.582V6.246l-1.4,1.6Zm-2.839,0A1.223,1.223,0,0,1,3.112,5.233H4.583V6.246H1.906Zm2.731,0.16L5.984,7.881H1.89V6.495c0-.03,0-0.06,0-0.089H4.638Zm3.105-.213V5.233h1.58a1.177,1.177,0,0,1,1.2.96H7.743Zm2.8,0.16c0,0.03,0,.059,0,0.089V7.881H6.4L7.743,6.352h2.8Zm0,2.79V10h-2.8V9.142h2.8Zm-2.8-.16V8.04h2.8V8.982h-2.8ZM1.89,8.823V8.094H4.638V8.823H1.89Zm2.747,0.16v1.173H1.89V8.982H4.638Zm1.49,1.173H4.853V8.076H7.582L7.564,10.155h2.981v1.35c0,0.006,0,.012,0,0.018H7.69Zm-0.036.16L4.638,11.523H1.891c0-.006,0,0.041,0,0.035V10.315h4.2Zm1.652,1.369h2.795a1.221,1.221,0,0,1-1.214,1.084H7.743V11.684h0Zm-3,0,1.49-1.226,1.346,1.226v1.084H4.745V11.684Zm-0.162,0v1.084H3.112A1.221,1.221,0,0,1,1.9,11.683H4.583Z"/>
</svg>
