<?xml version="1.0" encoding="utf-8"?>
<!-- Generator: Adobe Illustrator 19.2.1, SVG Export Plug-In . SVG Version: 6.00 Build 0)  -->
<svg version="1.1" id="Layer_1" xmlns="http://www.w3.org/2000/svg" xmlns:xlink="http://www.w3.org/1999/xlink" x="0px" y="0px"
	 viewBox="0 0 18 18" style="enable-background:new 0 0 18 18;" xml:space="preserve">
<style type="text/css">
	.st0{fill:#8D97A6;}
</style>
<path class="st0" d="M2.3,8.1l3.2,2.7l-1,4c-0.1,0.5,0.2,0.9,0.6,1.1c0.2,0.1,0.5,0,0.7-0.1l3.5-2.2l3.5,2.2c0.4,0.3,1,0.1,1.2-0.3
	c0.1-0.2,0.2-0.4,0.1-0.6l-1-4l3.2-2.7c0.4-0.3,0.4-0.9,0.1-1.2c-0.2-0.2-0.4-0.3-0.6-0.3l-4.2-0.3l-1.6-3.8C10,2,9.5,1.8,9,2
	C8.8,2,8.6,2.2,8.6,2.4L7,6.2L2.8,6.5C2.3,6.6,2,7,2,7.5C2,7.7,2.1,7.9,2.3,8.1z"/>
</svg>
