<svg xmlns="http://www.w3.org/2000/svg" width="20" height="20" viewBox="0 0 20 20">
  <defs>
    <style>
      .cls-1 {
        fill: #1b6db2;
        fill-rule: evenodd;
      }
    </style>
  </defs>
  <path id="Forma_1" data-name="Forma 1" class="cls-1" d="M10.478,18.478a9,9,0,1,1,9-9A9.01,9.01,0,0,1,10.478,18.478ZM10.509,2.006a7.5,7.5,0,1,0,7.5,7.5A7.511,7.511,0,0,0,10.509,2.006Zm2.73,11.746a0.512,0.512,0,0,1-.364-0.15l-2.76-2.76a0.513,0.513,0,0,1-.151-0.364V4.639a0.514,0.514,0,0,1,1.029,0v5.626L13.6,12.874A0.514,0.514,0,0,1,13.238,13.752Z"/>
</svg>
