<svg xmlns="http://www.w3.org/2000/svg" width="18" height="18" viewBox="0 0 18 18">
  <defs>
    <style>
      .cls-1 {
        fill: #1b6db2;
        fill-rule: evenodd;
      }
    </style>
  </defs>
  <path id="Shape_20_copy" data-name="Shape 20 copy" class="cls-1" d="M6.181,6.274h0c-0.622-3.077.8-3.18,0.8-3.18a2.021,2.021,0,0,1,.779-0.748A2.557,2.557,0,0,1,9.358,2a2.255,2.255,0,0,1,.637.126h0a2.775,2.775,0,0,1,.7.371,3.78,3.78,0,0,1,.721.616A3.028,3.028,0,0,1,12.2,4.522,2.72,2.72,0,0,1,12.131,6.1c0.255-.025.557,0.128,0.273,1.165a1.167,1.167,0,0,1-.547.982,2.78,2.78,0,0,1-2.569,2.648A2.649,2.649,0,0,1,6.747,8.368c-0.149.1-.4,0.05-0.669-0.945C5.855,6.613,5.99,6.342,6.181,6.274Zm9.155,7.885c0.046-.677-0.008-2.047-1.156-2.348A9.417,9.417,0,0,1,11.39,10.5l-1.159,3.787-0.159.513-0.519-1.52c1.3-1.876-.345-1.8-0.345-1.8s-1.645-.073-0.345,1.8L8.35,14.786l-0.16-.509,0,0.008L8,13.685H8L7.027,10.5a9.416,9.416,0,0,1-2.79,1.314c-1.147.3-1.2,1.67-1.156,2.347a5.22,5.22,0,0,0,.133,1.323,11.464,11.464,0,0,0,5.994,1.505L9.216,16.9l0,0.088a11.463,11.463,0,0,0,5.994-1.505,5.232,5.232,0,0,0,.133-1.323H15.336Z"/>
</svg>
