<svg xmlns="http://www.w3.org/2000/svg" width="16" height="16" viewBox="0 0 16 16">
  <defs>
    <style>
      .cls-1 {
        fill: #1b6db2;
        fill-rule: evenodd;
      }
    </style>
  </defs>
  <path id="Icon" class="cls-1" d="M10.842,3.165A2.749,2.749,0,0,1,8.015,5.829,2.749,2.749,0,0,1,5.188,3.165,2.75,2.75,0,0,1,8.015.5,2.75,2.75,0,0,1,10.842,3.165ZM10.231,6.014a3.881,3.881,0,0,1-4.439-.005c-2.537.548-4.354,2-4.354,3.721v3.792a0.464,0.464,0,0,0,.469.456H2.844a0.444,0.444,0,0,0,.469-0.411V10.608c0-.243.14-0.147,0.312-0.147a0.3,0.3,0,0,1,.313.293v3.574l0-.938a3.332,3.332,0,0,0,.3,1.268S5.218,15.5,8,15.5c2.8,0,3.757-.841,3.757-0.841a3.333,3.333,0,0,0,.3-1.268l0,0.938V10.755a0.313,0.313,0,0,1,.625,0s0,2.68,0,2.811a0.444,0.444,0,0,0,.469.411h0.938a0.464,0.464,0,0,0,.469-0.456V9.73C14.563,8.018,12.755,6.565,10.231,6.014Z"/>
</svg>
